<svg width="25" height="20" viewBox="0 0 25 20" fill="none" xmlns="http://www.w3.org/2000/svg">
<path d="M2.11718 7.92578C4.8125 5.33984 8.46875 3.75 12.5 3.75C16.5312 3.75 20.1875 5.33984 22.8828 7.92578C23.3828 8.40234 24.1719 8.38672 24.6484 7.89062C25.125 7.39453 25.1094 6.60156 24.6133 6.125C21.4727 3.10547 17.2031 1.25 12.5 1.25C7.79687 1.25 3.52734 3.10547 0.382809 6.12109C-0.113284 6.60156 -0.12891 7.39062 0.347653 7.89062C0.824215 8.39063 1.61718 8.40625 2.11328 7.92578H2.11718ZM12.5 10C14.7187 10 16.7422 10.8242 18.2891 12.1875C18.8086 12.6445 19.5977 12.5938 20.0547 12.0781C20.5117 11.5625 20.4609 10.7695 19.9453 10.3125C17.9609 8.5625 15.3516 7.5 12.5 7.5C9.64843 7.5 7.03906 8.5625 5.05859 10.3125C4.53906 10.7695 4.49218 11.5586 4.94922 12.0781C5.40625 12.5977 6.19531 12.6445 6.71484 12.1875C8.25781 10.8242 10.2812 10 12.5039 10H12.5ZM15 16.25C15 15.587 14.7366 14.9511 14.2678 14.4822C13.7989 14.0134 13.163 13.75 12.5 13.75C11.837 13.75 11.2011 14.0134 10.7322 14.4822C10.2634 14.9511 10 15.587 10 16.25C10 16.913 10.2634 17.5489 10.7322 18.0178C11.2011 18.4866 11.837 18.75 12.5 18.75C13.163 18.75 13.7989 18.4866 14.2678 18.0178C14.7366 17.5489 15 16.913 15 16.25Z" fill="black"/>
</svg>
